<svg width="148" height="127" viewBox="0 0 148 127" fill="none" xmlns="http://www.w3.org/2000/svg">
<path fill-rule="evenodd" clip-rule="evenodd" d="M8 0C3.58173 0 0 3.58173 0 8V119C0 123.418 3.58173 127 8 127H109.129C113.401 127 115.705 121.989 112.925 118.746L99.0711 102.583L89.8625 91.564L148 91.1499V8C148 3.58173 144.418 0 140 0H8ZM36 85C36 88.866 39.134 92 43 92H90.0845L84.4033 86.5693C84.0682 86.3597 83.7492 86.1044 83.4539 85.8013L64.4218 66.2729C62.2644 64.0593 62.6728 60.6058 64.9004 58.8539C66.6643 57.1648 69.6196 56.0439 72.9813 56.0013L72.9854 56H112V42C112 38.134 108.866 35 105 35H43C39.134 35 36 38.134 36 42V85Z" fill="#066DC5"/>
</svg>
